<svg xmlns="http://www.w3.org/2000/svg" xmlns:xlink="http://www.w3.org/1999/xlink" viewBox="0 0 1568.81 230"><defs><style>.cls-1{fill:#3e7c7b;}.cls-2{fill:url(#linear-gradient);}.cls-3{fill:#63c9c9;}.cls-4,.cls-5,.cls-6{fill:none;stroke-miterlimit:10;}.cls-4,.cls-5{stroke:#3e7c7b;}.cls-4{stroke-width:10px;}.cls-5,.cls-6{stroke-linecap:round;stroke-width:22px;}.cls-6{stroke:#63c9c9;}</style><linearGradient id="linear-gradient" x1="83.81" y1="110" x2="151.81" y2="110" gradientTransform="translate(8.8 227.81) rotate(-90)" gradientUnits="userSpaceOnUse"><stop offset="0" stop-color="#fff" stop-opacity="0"/><stop offset="0.15" stop-color="#fafdfd" stop-opacity="0.02"/><stop offset="0.31" stop-color="#ebf7f6" stop-opacity="0.1"/><stop offset="0.46" stop-color="#d3eceb" stop-opacity="0.22"/><stop offset="0.62" stop-color="#b0dddb" stop-opacity="0.39"/><stop offset="1" stop-color="#84cac7" stop-opacity="0.6"/><stop offset="1" stop-color="#4eb4ae" stop-opacity="0.87"/><stop offset="1" stop-color="#33a8a2"/></linearGradient></defs><title>logo</title><g id="Layer_2" data-name="Layer 2"><g id="logo"><g id="outlined"><path class="cls-1" d="M58.23,75V176.64A55.56,55.56,0,0,1,42,216.24a57,57,0,0,1-20.46,13,10.28,10.28,0,0,1-3.74.66,10.88,10.88,0,0,1-3.52-21.12,34.84,34.84,0,0,0,12.32-7.92,32.88,32.88,0,0,0,9.9-24.2V75a10.89,10.89,0,0,1,21.78,0ZM39.53,39.14a11.16,11.16,0,0,1,0-15.4,11.63,11.63,0,0,1,7.7-3.3,11.2,11.2,0,0,1,7.7,3.3,10.63,10.63,0,0,1,0,15.4,11,11,0,0,1-7.7,3.08A11.39,11.39,0,0,1,39.53,39.14Z"/><path class="cls-1" d="M70.76,119A55.23,55.23,0,1,1,126,174.22,55.25,55.25,0,0,1,70.76,119Zm21.78,0A33.44,33.44,0,1,0,126,85.56,33.57,33.57,0,0,0,92.54,119Z"/><path class="cls-1" d="M304.18,118.56a55.22,55.22,0,1,1-110.44,0V19.78a10.89,10.89,0,0,1,21.78,0V74.56a55.28,55.28,0,0,1,88.66,44Zm-21.78,0a33.44,33.44,0,0,0-66.88-.22v.22a33.44,33.44,0,1,0,66.88,0Z"/><path class="cls-1" d="M427.38,118.56a55.22,55.22,0,1,1-110.44,0V19.78a10.89,10.89,0,0,1,21.78,0V74.56a55.28,55.28,0,0,1,88.66,44Zm-21.78,0a33.44,33.44,0,0,0-66.88-.22v.22a33.44,33.44,0,1,0,66.88,0Z"/><path class="cls-1" d="M501.74,74.56a10.89,10.89,0,0,1-11,11H471.38v77.66a10.89,10.89,0,1,1-21.78,0V85.56H437.5a10.89,10.89,0,0,1,0-21.78h12.1A55.41,55.41,0,0,1,465.66,23.3a52.37,52.37,0,0,1,20.68-13,10.69,10.69,0,0,1,13.86,6.6,10.87,10.87,0,0,1-6.6,13.86,31.89,31.89,0,0,0-12.54,7.92c-6.6,6.6-9.68,15.18-9.68,25.08h19.36A10.85,10.85,0,0,1,501.74,74.56Z"/><path class="cls-1" d="M503.06,119a55.22,55.22,0,1,1,55.22,55.22A55.25,55.25,0,0,1,503.06,119Zm21.78,0a33.44,33.44,0,1,0,33.44-33.44A33.57,33.57,0,0,0,524.84,119Zm3.74-80.52a11,11,0,0,1-3.08-7.7,11.39,11.39,0,0,1,3.08-7.7,11.39,11.39,0,0,1,7.7-3.08,11,11,0,0,1,7.7,3.08,10.67,10.67,0,0,1,3.3,7.7,10.32,10.32,0,0,1-3.3,7.7,10.32,10.32,0,0,1-7.7,3.3A10.67,10.67,0,0,1,528.58,38.48Zm43.56,0a11,11,0,0,1-3.08-7.7,11.39,11.39,0,0,1,3.08-7.7,11.39,11.39,0,0,1,7.7-3.08,11,11,0,0,1,7.7,3.08,10.67,10.67,0,0,1,3.3,7.7,10.32,10.32,0,0,1-3.3,7.7,10.32,10.32,0,0,1-7.7,3.3A10.67,10.67,0,0,1,572.14,38.48Z"/><path class="cls-1" d="M691.16,74.78a11,11,0,0,1-11,11,33.43,33.43,0,0,0-33.44,33.44v44.22a10.89,10.89,0,1,1-21.78,0V119.22A55.25,55.25,0,0,1,680.16,64,10.85,10.85,0,0,1,691.16,74.78Z"/><path class="cls-1" d="M849.33,109.1a2,2,0,0,1,.22,1.1v53.46a11,11,0,0,1-11,11,10.85,10.85,0,0,1-10.78-11V108.22a22.44,22.44,0,0,0-44.88,0v55.44a10.85,10.85,0,0,1-10.78,11,11,11,0,0,1-11-11V108.22a22.33,22.33,0,0,0-44.66,0v55.44a10.89,10.89,0,1,1-21.78,0V108.22a44.18,44.18,0,0,1,44.22-44A43.53,43.53,0,0,1,772.11,79.4a43.53,43.53,0,0,1,33.22-15.18,44.18,44.18,0,0,1,44.22,44C849.55,108.66,849.55,108.88,849.33,109.1Z"/><path class="cls-1" d="M973,119a10.85,10.85,0,0,1-11,10.78h-75.9a33.53,33.53,0,0,0,31.68,22.66,43.17,43.17,0,0,0,24.64-7.26c5.06-3.3,11.88-.22,14.52,5.06,2.64,5.5-.22,11.22-5.28,14.52-14.52,9.68-25.74,9.46-33.88,9.46a55.22,55.22,0,0,1,0-110.44C944.37,63.78,973,83.14,973,119Zm-86.9-11h63.58C945,92.6,931,85.56,917.75,85.56A33.63,33.63,0,0,0,886.07,108Z"/><path class="cls-1" d="M1075.05,74.56V19.78a10.89,10.89,0,0,1,21.78,0v98.78a55.11,55.11,0,1,1-21.78-44Zm0,44v-.22a33.55,33.55,0,1,0,0,.22Z"/><path class="cls-1" d="M1110.47,163.44V20.22a10.89,10.89,0,0,1,21.78,0V163.44a10.89,10.89,0,1,1-21.78,0Z"/><path class="cls-1" d="M1255.44,119.88V163a10.63,10.63,0,0,1-11,11c-4.4,0-10.56-4.62-10.56-11-9.46,7.92-20,11-32.56,11-31,0-55.66-23.1-55.66-54.12a55.31,55.31,0,0,1,55.66-55.66C1232.34,64.22,1255.44,88.86,1255.44,119.88Zm-21.56,0c0-18.48-14.08-34.1-32.56-34.1s-34.1,15.62-34.1,34.1,15.62,32.56,34.1,32.56S1233.88,138.36,1233.88,119.88Z"/><path class="cls-1" d="M1334.86,74.78a11,11,0,0,1-11,11,33.43,33.43,0,0,0-33.44,33.44v44.22a10.89,10.89,0,1,1-21.78,0V119.22A55.25,55.25,0,0,1,1323.86,64,10.85,10.85,0,0,1,1334.86,74.78Z"/><path class="cls-1" d="M1444.63,119a10.84,10.84,0,0,1-11,10.78h-75.9a33.53,33.53,0,0,0,31.68,22.66,43.17,43.17,0,0,0,24.64-7.26c5.06-3.3,11.88-.22,14.52,5.06,2.64,5.5-.22,11.22-5.27,14.52-14.53,9.68-25.75,9.46-33.89,9.46a55.22,55.22,0,0,1,0-110.44C1416,63.78,1444.63,83.14,1444.63,119Zm-86.9-11h63.58c-4.62-15.4-18.7-22.44-31.9-22.44A33.63,33.63,0,0,0,1357.73,108Z"/><path class="cls-1" d="M1568.27,119v44.22a10.89,10.89,0,1,1-21.78,0V119a33.44,33.44,0,0,0-66.88,0v44.22a10.89,10.89,0,1,1-21.78,0V119a55.22,55.22,0,0,1,110.44,0Z"/><circle class="cls-2" cx="118.81" cy="110" r="34"/><path class="cls-3" d="M51.23,66V167.64A55.56,55.56,0,0,1,35,207.24a57,57,0,0,1-20.46,13,10.28,10.28,0,0,1-3.74.66,10.88,10.88,0,0,1-3.52-21.12,34.84,34.84,0,0,0,12.32-7.92,32.88,32.88,0,0,0,9.9-24.2V66a10.89,10.89,0,0,1,21.78,0ZM32.53,30.14a11.17,11.17,0,0,1,0-15.4,11.63,11.63,0,0,1,7.7-3.3,11.2,11.2,0,0,1,7.7,3.3,10.32,10.32,0,0,1,3.3,7.7,10.32,10.32,0,0,1-3.3,7.7,11,11,0,0,1-7.7,3.08A11.39,11.39,0,0,1,32.53,30.14Z"/><path class="cls-3" d="M63.76,110A55.23,55.23,0,1,1,119,165.22,55.25,55.25,0,0,1,63.76,110Zm21.78,0A33.44,33.44,0,1,0,119,76.56,33.57,33.57,0,0,0,85.54,110Z"/><path class="cls-3" d="M297.18,109.56a55.22,55.22,0,1,1-110.44,0V10.78a10.89,10.89,0,0,1,21.78,0V65.56a55.28,55.28,0,0,1,88.66,44Zm-21.78,0a33.44,33.44,0,0,0-66.88-.22v.22a33.44,33.44,0,1,0,66.88,0Z"/><path class="cls-3" d="M420.38,109.56a55.22,55.22,0,1,1-110.44,0V10.78a10.89,10.89,0,0,1,21.78,0V65.56a55.28,55.28,0,0,1,88.66,44Zm-21.78,0a33.44,33.44,0,0,0-66.88-.22v.22a33.44,33.44,0,1,0,66.88,0Z"/><path class="cls-3" d="M494.74,65.56a10.89,10.89,0,0,1-11,11H464.38v77.66a10.89,10.89,0,1,1-21.78,0V76.56H430.5a10.89,10.89,0,0,1,0-21.78h12.1A55.41,55.41,0,0,1,458.66,14.3a52.37,52.37,0,0,1,20.68-13,10.69,10.69,0,0,1,13.86,6.6,10.87,10.87,0,0,1-6.6,13.86,31.89,31.89,0,0,0-12.54,7.92c-6.6,6.6-9.68,15.18-9.68,25.08h19.36A10.85,10.85,0,0,1,494.74,65.56Z"/><path class="cls-3" d="M496.06,110a55.22,55.22,0,1,1,55.22,55.22A55.25,55.25,0,0,1,496.06,110Zm21.78,0a33.44,33.44,0,1,0,33.44-33.44A33.57,33.57,0,0,0,517.84,110Zm3.74-80.52a11,11,0,0,1-3.08-7.7,11.39,11.39,0,0,1,3.08-7.7,11.39,11.39,0,0,1,7.7-3.08,11,11,0,0,1,7.7,3.08,10.67,10.67,0,0,1,3.3,7.7,10.32,10.32,0,0,1-3.3,7.7,10.32,10.32,0,0,1-7.7,3.3A10.67,10.67,0,0,1,521.58,29.48Zm43.56,0a11,11,0,0,1-3.08-7.7,11.39,11.39,0,0,1,3.08-7.7,11.39,11.39,0,0,1,7.7-3.08,11,11,0,0,1,7.7,3.08,10.67,10.67,0,0,1,3.3,7.7,10.32,10.32,0,0,1-3.3,7.7,10.32,10.32,0,0,1-7.7,3.3A10.67,10.67,0,0,1,565.14,29.48Z"/><path class="cls-3" d="M684.16,65.78a11,11,0,0,1-11,11,33.43,33.43,0,0,0-33.44,33.44v44.22a10.89,10.89,0,1,1-21.78,0V110.22A55.25,55.25,0,0,1,673.16,55,10.85,10.85,0,0,1,684.16,65.78Z"/><path class="cls-3" d="M842.33,100.1a2,2,0,0,1,.22,1.1v53.46a11,11,0,0,1-11,11,10.85,10.85,0,0,1-10.78-11V99.22a22.44,22.44,0,0,0-44.88,0v55.44a10.85,10.85,0,0,1-10.78,11,11,11,0,0,1-11-11V99.22a22.33,22.33,0,0,0-44.66,0v55.44a10.89,10.89,0,1,1-21.78,0V99.22a44.18,44.18,0,0,1,44.22-44A43.53,43.53,0,0,1,765.11,70.4a43.53,43.53,0,0,1,33.22-15.18,44.18,44.18,0,0,1,44.22,44C842.55,99.66,842.55,99.88,842.33,100.1Z"/><path class="cls-3" d="M966,110a10.85,10.85,0,0,1-11,10.78h-75.9a33.53,33.53,0,0,0,31.68,22.66,43.17,43.17,0,0,0,24.64-7.26c5.06-3.3,11.88-.22,14.52,5.06,2.64,5.5-.22,11.22-5.28,14.52-14.52,9.68-25.74,9.46-33.88,9.46a55.22,55.22,0,0,1,0-110.44C937.37,54.78,966,74.14,966,110Zm-86.9-11h63.58C938,83.6,924,76.56,910.75,76.56A33.63,33.63,0,0,0,879.07,99Z"/><path class="cls-3" d="M1068.05,65.56V10.78a10.89,10.89,0,0,1,21.78,0v98.78a55.11,55.11,0,1,1-21.78-44Zm0,44v-.22a33.55,33.55,0,1,0,0,.22Z"/><path class="cls-3" d="M1103.47,154.44V11.22a10.89,10.89,0,0,1,21.78,0V154.44a10.89,10.89,0,1,1-21.78,0Z"/><path class="cls-3" d="M1248.44,110.88V154a10.63,10.63,0,0,1-11,11c-4.4,0-10.56-4.62-10.56-11-9.46,7.92-20,11-32.56,11-31,0-55.66-23.1-55.66-54.12a55.31,55.31,0,0,1,55.66-55.66C1225.34,55.22,1248.44,79.86,1248.44,110.88Zm-21.56,0c0-18.48-14.08-34.1-32.56-34.1s-34.1,15.62-34.1,34.1,15.62,32.56,34.1,32.56S1226.88,129.36,1226.88,110.88Z"/><path class="cls-3" d="M1327.86,65.78a11,11,0,0,1-11,11,33.43,33.43,0,0,0-33.44,33.44v44.22a10.89,10.89,0,1,1-21.78,0V110.22A55.25,55.25,0,0,1,1316.86,55,10.85,10.85,0,0,1,1327.86,65.78Z"/><path class="cls-3" d="M1437.63,110a10.84,10.84,0,0,1-11,10.78h-75.9a33.53,33.53,0,0,0,31.68,22.66,43.17,43.17,0,0,0,24.64-7.26c5.06-3.3,11.88-.22,14.52,5.06,2.64,5.5-.22,11.22-5.27,14.52-14.53,9.68-25.75,9.46-33.89,9.46a55.22,55.22,0,0,1,0-110.44C1409,54.78,1437.63,74.14,1437.63,110Zm-86.9-11h63.58c-4.62-15.4-18.7-22.44-31.9-22.44A33.63,33.63,0,0,0,1350.73,99Z"/><path class="cls-3" d="M1561.27,110v44.22a10.89,10.89,0,1,1-21.78,0V110a33.44,33.44,0,0,0-66.88,0v44.22a10.89,10.89,0,1,1-21.78,0V110a55.22,55.22,0,0,1,110.44,0Z"/><path class="cls-1" d="M249.31,230a12.49,12.49,0,0,1-12.5-12.5h0a12.5,12.5,0,0,1,12.5-12.5h1307a12.5,12.5,0,0,1,12.5,12.5h0a12.5,12.5,0,0,1-12.5,12.5Z"/><path class="cls-3" d="M242.31,221a12.49,12.49,0,0,1-12.5-12.5h0a12.5,12.5,0,0,1,12.5-12.5h1307a12.5,12.5,0,0,1,12.5,12.5h0a12.5,12.5,0,0,1-12.5,12.5Z"/><line class="cls-4" x1="187.81" y1="206" x2="153.81" y2="159"/><line class="cls-5" x1="196.02" y1="219" x2="174.02" y2="187"/><line class="cls-6" x1="189.81" y1="210" x2="167.81" y2="178"/></g></g></g></svg>